<svg id="Layer_1" data-name="Layer 1" xmlns="http://www.w3.org/2000/svg" viewBox="0 0 568.36 70.52"><defs><style>.cls-1{fill:#666;}</style></defs><title>skinny_dope_logo_3</title><path class="cls-1" d="M399.55,397.17l4.46-2.62c2.32,8.14,9.2,13.66,20.34,13.66,11.33,0,17-5.81,17-13.56,0-8.14-7.17-11.24-17.53-14.53-11.33-3.68-21.5-6.88-21.5-18.69,0-11.14,9-18.21,20.53-18.21,11.14,0,18.5,6.39,21.79,14.24l-4.36,2.42c-2.52-6.1-7.75-11.72-17.44-11.72-9.4,0-15.3,5.52-15.3,13.08,0,8.14,6.88,10.65,16.56,13.85,12,4,22.47,7.75,22.47,19.47,0,11.24-8.81,18.6-22.28,18.6C411.66,413.15,402.65,406.76,399.55,397.17Z" transform="translate(-399.55 -342.93)"/><path class="cls-1" d="M497.86,412.09l-34-33.42v33.42h-5.13v-67.8h5.13v31.58l33-31.58h6.88l-34.29,32.93,35.26,34.87Z" transform="translate(-399.55 -342.93)"/><path class="cls-1" d="M519.26,344.28v67.8h-5.13v-67.8Z" transform="translate(-399.55 -342.93)"/><path class="cls-1" d="M585.81,344.28v67.8h-4.55l-40-58.31v58.31h-5.13v-67.8h4.46l40.1,58.31V344.28Z" transform="translate(-399.55 -342.93)"/><path class="cls-1" d="M652.35,344.28v67.8H647.8l-40-58.31v58.31h-5.13v-67.8h4.46l40.1,58.31V344.28Z" transform="translate(-399.55 -342.93)"/><path class="cls-1" d="M691.57,384.19v27.9h-5.13v-27.9l-24.7-39.91h5.81l21.5,35,21.41-35h5.81Z" transform="translate(-399.55 -342.93)"/><path class="cls-1" d="M783.1,378.19c0,19.18-14.24,33.9-32.93,33.9H723v-67.8h27.12C768.87,344.28,783.1,359,783.1,378.19Zm-14.92,0c0-11.62-7.36-19-18-19H738.55v38h11.62C760.83,397.17,768.19,389.81,768.19,378.19Z" transform="translate(-399.55 -342.93)"/><path d="M788.91,378.19a35.26,35.26,0,1,1,35.26,35.26A35,35,0,0,1,788.91,378.19Zm55,0c0-12.11-8.72-20.15-19.76-20.15s-19.76,8-19.76,20.15,8.72,20.15,19.76,20.15S843.93,390.29,843.93,378.19Z" transform="translate(-399.55 -342.93)"/><path class="cls-1" d="M917.54,367.53c0,12.88-10.36,23.25-23.73,23.25H883.64v21.31h-15.5v-67.8h25.67C907.18,344.28,917.54,354.65,917.54,367.53Zm-15.5,0c0-4.94-3.49-8.72-8.23-8.72H883.64v17.44h10.17C898.56,376.25,902,372.47,902,367.53Z" transform="translate(-399.55 -342.93)"/><path class="cls-1" d="M967.91,397.17v14.92H925.29v-67.8h42.14V359.2H940.79v11.24H965v14.72H940.79v12Z" transform="translate(-399.55 -342.93)"/></svg>